<svg xmlns:xlink="http://www.w3.org/1999/xlink" xmlns="http://www.w3.org/2000/svg" fill="none" viewBox="0 0 24 24" data-icon="hygraph-icon" aria-hidden="true" focusable="false" tabindex="-1" class="css-cpdw86" width="24"  height="24" ><path d="M9.04 11.794H4.592A6.794 6.794 0 017.537 7.16l1.351-.906L8.051 5l-1.352.906A8.304 8.304 0 003 12.814v5.02a1.51 1.51 0 001.51 1.51h4.53a1.51 1.51 0 001.51-1.51v-4.53a1.51 1.51 0 00-1.51-1.51zM19.609 11.794h-4.447a6.794 6.794 0 012.944-4.635l1.352-.906L18.628 5l-1.36.906a8.304 8.304 0 00-3.699 6.908v5.02a1.51 1.51 0 001.51 1.51h4.53a1.51 1.51 0 001.51-1.51v-4.53a1.51 1.51 0 00-1.51-1.51z" fill="#626E99"></path></svg>