<svg xmlns:xlink="http://www.w3.org/1999/xlink" xmlns="http://www.w3.org/2000/svg" fill="none" viewBox="0 0 24 24" data-icon="hygraph-icon" aria-hidden="true" focusable="false" tabindex="-1" class="css-cpdw86" width="24"  height="24" ><path d="M13.63 21H5V3h7.93c.935 0 1.85.287 2.638.827a5.158 5.158 0 011.807 2.22c.392.91.534 1.92.407 2.913a5.437 5.437 0 01-1.12 2.69 5.286 5.286 0 011.647 2.65 5.61 5.61 0 01-.084 3.183 5.23 5.23 0 01-1.785 2.546c-.826.63-1.815.97-2.83.971h.02zm-5.831-3h5.812a2.03 2.03 0 001.484-.659c.394-.422.615-.994.615-1.591s-.221-1.169-.615-1.591a2.03 2.03 0 00-1.484-.659H7.799V18zm0-7.5h5.13a2.03 2.03 0 001.485-.659c.394-.422.615-.994.615-1.591s-.221-1.17-.615-1.591A2.03 2.03 0 0012.93 6H7.799v4.5z" fill="#626E99"></path></svg>