<svg xmlns:xlink="http://www.w3.org/1999/xlink" xmlns="http://www.w3.org/2000/svg" fill="none" viewBox="0 0 24 24" data-icon="hygraph-icon" aria-hidden="true" focusable="false" tabindex="-1" class="css-cpdw86" width="24"  height="24" ><path fill-rule="evenodd" clip-rule="evenodd" d="M5.672 1.7l.918.918L3.836 5.37 6.59 8.125l-.918.918-2.753-2.754h-.001L2 5.373V5.37l.918-.918L5.673 1.7zm5.192 0l-.918.918L12.7 5.372 9.946 8.125l.918.918 2.753-2.753.919-.918-.918-.919L10.863 1.7zM3 19.543v-9h1.5v9h15v-15h-3v-1.5h3a1.5 1.5 0 011.5 1.5v15a1.5 1.5 0 01-1.5 1.5h-15a1.5 1.5 0 01-1.5-1.5z" fill="#626E99"></path></svg>