<svg xmlns:xlink="http://www.w3.org/1999/xlink" xmlns="http://www.w3.org/2000/svg" fill="none" viewBox="0 0 24 24" data-icon="hygraph-icon" aria-hidden="true" focusable="false" tabindex="-1" class="css-cpdw86" width="24"  height="24" ><path d="M17.802 14.848l-1.441-1.442 1.441-1.441a4.079 4.079 0 00-5.767-5.767l-1.441 1.441-1.442-1.441 1.442-1.442a6.116 6.116 0 018.65 8.65l-1.442 1.442zm-2.884 2.884l-1.441 1.441a6.116 6.116 0 11-8.65-8.65l1.441-1.441 1.442 1.441-1.442 1.442a4.077 4.077 0 105.767 5.767l1.442-1.442 1.441 1.442zm0-10.093l1.443 1.443-7.209 7.207-1.442-1.441 7.208-7.208z" fill="#626E99"></path></svg>