<svg xmlns:xlink="http://www.w3.org/1999/xlink" xmlns="http://www.w3.org/2000/svg" fill="none" viewBox="0 0 24 24" data-icon="hygraph-icon" aria-hidden="true" focusable="false" tabindex="-1" class="css-cpdw86" width="24"  height="24" ><path d="M9 5.25h10.5v1.5H9v-1.5zM9 11.25h10.5v1.5H9v-1.5zM9 17.25h10.5v1.5H9v-1.5zM6.5 9.3V4.5h-1v.6h-1v1.2h1v3h-1v1.2h3V9.3h-1zM7.5 19.5h-3v-2.4c0-.318.105-.623.293-.849A.924.924 0 015.5 15.9h1v-1.2h-2v-1.2h2c.265 0 .52.126.707.351.188.225.293.53.293.849v1.2c0 .318-.105.623-.293.848a.924.924 0 01-.707.352h-1v1.2h2v1.2z" fill="#626E99"></path></svg>